<svg width="299" height="299" viewBox="0 0 299 299" fill="none" xmlns="http://www.w3.org/2000/svg">
<path d="M99.7098 127.211C95.0833 119.222 89.5034 112.935 82.3528 110.458L52.6541 185.77C50.6089 190.957 50.6799 196.733 52.8517 201.827C55.0235 206.921 59.118 210.916 64.2346 212.934C69.3512 214.952 75.0707 214.826 80.1349 212.586C85.199 210.345 89.1931 206.172 91.2384 200.986L110.66 151.736C107.651 144.194 104.308 135.151 99.7098 127.211Z" fill="url(#paint0_linear_850_39021)"/>
<path d="M120.262 70.8554C115.145 68.8377 109.426 68.963 104.362 71.2037C99.2976 73.4444 95.3035 77.617 93.2583 82.8035L84.4677 105.095C93.4644 108.3 99.879 116.008 104.695 124.324C109.794 133.13 113.45 143.26 116.462 150.729L144.967 216.354C145.894 218.488 147.166 220.429 148.712 222.11C150.754 224.345 153.318 226.158 156.314 227.34C157.756 227.908 159.225 228.302 160.697 228.53C164.545 229.137 168.519 228.649 172.148 227.072C174.653 225.984 176.919 224.413 178.817 222.45C180.465 220.744 181.807 218.771 182.788 216.618C182.981 216.207 183.162 215.788 183.331 215.36L186.369 207.655L159.743 146.356L159.758 146.35L131.76 81.8942C129.577 76.8685 125.487 72.9158 120.39 70.9057C120.368 70.8973 120.347 70.8891 120.326 70.8808C120.305 70.8723 120.283 70.8638 120.262 70.8554Z" fill="url(#paint1_linear_850_39021)"/>
<path d="M216.283 115.212C211.722 104.712 199.513 99.8977 189.013 104.459C183.841 106.705 180.049 110.806 178.077 115.645C177.999 115.828 177.923 116.012 177.85 116.198L168.84 139.047C178.087 142.145 184.651 149.981 189.559 158.446C194.671 167.263 198.337 177.405 201.351 184.878L201.346 184.88L208.696 201.801C213.257 212.301 225.466 217.115 235.966 212.554C246.466 207.993 251.281 195.784 246.72 185.284L216.283 115.212Z" fill="url(#paint2_linear_850_39021)"/>
<path d="M184.576 161.336C179.838 153.165 174.105 146.773 166.723 144.415L165.989 146.277L189.357 200.076L195.25 185.134C192.316 177.744 189.033 169.022 184.576 161.336Z" fill="url(#paint3_linear_850_39021)"/>
<defs>
<linearGradient id="paint0_linear_850_39021" x1="149.805" y1="69.4277" x2="149.805" y2="228.783" gradientUnits="userSpaceOnUse">
<stop offset="0.259615" stop-color="#03559D"/>
<stop offset="0.495192" stop-color="#03559D"/>
<stop offset="1" stop-color="#1A1A1A"/>
</linearGradient>
<linearGradient id="paint1_linear_850_39021" x1="149.805" y1="69.4277" x2="149.805" y2="228.783" gradientUnits="userSpaceOnUse">
<stop offset="0.403846" stop-color="#03559D"/>
<stop offset="1" stop-color="#1B68BB"/>
</linearGradient>
<linearGradient id="paint2_linear_850_39021" x1="149.805" y1="69.4277" x2="149.805" y2="228.783" gradientUnits="userSpaceOnUse">
<stop offset="0.495192" stop-color="#389DDD"/>
<stop offset="1" stop-color="#54D2FF"/>
</linearGradient>
<linearGradient id="paint3_linear_850_39021" x1="149.805" y1="69.4277" x2="149.805" y2="228.783" gradientUnits="userSpaceOnUse">
<stop stop-color="#389DDD"/>
<stop offset="0.850962" stop-color="#1B68BB"/>
</linearGradient>
</defs>
</svg>
