<svg width="806" height="185" viewBox="0 0 806 185" fill="none" xmlns="http://www.w3.org/2000/svg">
<path d="M78.2506 0C88.8622 0 97.9485 6.28901 102.079 15.373H102.142L138.87 99.3525L165.113 160.209L159.965 169.61C159.711 170.182 159.394 170.754 159.076 171.263L158.822 171.771C154.183 179.203 145.987 184.095 136.646 184.095C125.59 184.095 116.122 177.234 112.309 167.515L79.7125 93.9531C69.6094 66.4472 57.5361 50.2483 42.7946 45.0391L53.4059 18.041C56.8372 7.55944 66.6224 1.44775e-06 78.2506 0ZM185.637 42.1172C196.503 42.1174 205.78 48.7235 209.719 58.125L248.226 146.615C249.878 150.045 250.831 153.92 250.831 157.985C250.831 172.405 239.139 184.095 224.715 184.095C213.786 184.095 204.382 177.361 200.505 167.769L182.968 127.621C174.072 101.449 163.587 86.6478 149.608 79.7236L162.19 56.7275C166.447 48.0882 175.344 42.1172 185.637 42.1172ZM40.0621 51.8359C55.6297 57.7438 65.6054 75.8484 75.8356 103.799L51.1178 166.562C50.9907 166.943 50.8006 167.387 50.61 167.769L50.2916 168.468C46.1613 177.488 37.0748 183.713 26.527 183.713C12.103 183.713 0.411743 172.025 0.411743 157.604C0.411768 153.92 1.17406 150.426 2.50842 147.313L40.0621 51.8359ZM146.05 86.1396C158.886 91.2853 169.434 108.945 178.965 134.863L169.688 151.888L143.381 91.0947L146.05 86.1396Z" fill="#FAFAFA"/>
<path d="M733.914 181.457V87.0448H751.262L753.48 95.6514C754.871 93.8258 756.48 92.1305 758.306 90.5657C760.132 89.0009 762.306 87.7838 764.828 86.9144C767.437 85.9581 770.481 85.48 773.959 85.48C780.046 85.48 785.394 87.0013 790.003 90.0441C794.699 93.0868 798.438 97.2163 801.221 102.432C804.004 107.562 805.395 113.43 805.395 120.037C805.395 126.644 803.96 132.556 801.09 137.772C798.308 142.901 794.568 146.944 789.873 149.899C785.177 152.855 779.916 154.333 774.089 154.333C769.394 154.333 765.35 153.507 761.959 151.855C758.567 150.204 755.741 147.9 753.48 144.944V181.457H733.914ZM769.133 137.25C772.263 137.25 775.046 136.555 777.481 135.164C780.003 133.686 781.959 131.643 783.351 129.035C784.742 126.427 785.438 123.427 785.438 120.037C785.438 116.646 784.742 113.647 783.351 111.039C781.959 108.431 780.003 106.388 777.481 104.91C775.046 103.345 772.263 102.563 769.133 102.563C765.915 102.563 763.046 103.345 760.524 104.91C758.089 106.388 756.176 108.431 754.784 111.039C753.393 113.647 752.697 116.603 752.697 119.907C752.697 123.297 753.393 126.296 754.784 128.904C756.176 131.512 758.089 133.555 760.524 135.033C763.046 136.511 765.915 137.25 769.133 137.25Z" fill="#FAFAFA"/>
<path d="M647.421 181.457V87.0448H664.77L666.987 95.6514C668.379 93.8258 669.987 92.1305 671.814 90.5657C673.64 89.0009 675.814 87.7838 678.336 86.9144C680.944 85.9581 683.988 85.48 687.466 85.48C693.553 85.48 698.901 87.0013 703.51 90.0441C708.206 93.0868 711.945 97.2163 714.728 102.432C717.511 107.562 718.902 113.43 718.902 120.037C718.902 126.644 717.467 132.556 714.598 137.772C711.815 142.901 708.076 146.944 703.38 149.899C698.684 152.855 693.423 154.333 687.597 154.333C682.901 154.333 678.857 153.507 675.466 151.855C672.074 150.204 669.248 147.9 666.987 144.944V181.457H647.421ZM682.64 137.25C685.771 137.25 688.553 136.555 690.988 135.164C693.51 133.686 695.467 131.643 696.858 129.035C698.249 126.427 698.945 123.427 698.945 120.037C698.945 116.646 698.249 113.647 696.858 111.039C695.467 108.431 693.51 106.388 690.988 104.91C688.553 103.345 685.771 102.563 682.64 102.563C679.422 102.563 676.553 103.345 674.031 104.91C671.596 106.388 669.683 108.431 668.292 111.039C666.9 113.647 666.205 116.603 666.205 119.907C666.205 123.297 666.9 126.296 668.292 128.904C669.683 131.512 671.596 133.555 674.031 135.033C676.553 136.511 679.422 137.25 682.64 137.25Z" fill="#FAFAFA"/>
<path d="M547.416 152.768L580.678 61.4856H603.114L636.376 152.768H615.636L591.765 83.5239L567.895 152.768H547.416ZM561.895 132.816L567.112 117.69H614.984L620.071 132.816H561.895Z" fill="#FAFAFA"/>
<path d="M505.766 154.333C498.983 154.333 493.026 152.942 487.896 150.16C482.765 147.291 478.721 143.336 475.765 138.293C472.895 133.164 471.46 127.296 471.46 120.689C471.46 113.908 472.895 107.866 475.765 102.563C478.634 97.2598 482.635 93.0868 487.765 90.0441C492.896 87.0013 498.853 85.48 505.635 85.48C512.244 85.48 518.027 86.9144 522.984 89.7833C527.941 92.6522 531.81 96.5643 534.593 101.52C537.463 106.388 538.898 112.039 538.898 118.472C538.898 119.341 538.854 120.341 538.767 121.471C538.767 122.515 538.68 123.601 538.506 124.731H485.417V113.386H518.94C518.766 109.735 517.419 106.823 514.897 104.649C512.462 102.389 509.418 101.259 505.766 101.259C502.983 101.259 500.461 101.911 498.2 103.215C495.939 104.519 494.113 106.475 492.722 109.083C491.418 111.691 490.765 114.995 490.765 118.994V122.906C490.765 125.949 491.331 128.644 492.461 130.991C493.679 133.338 495.374 135.164 497.548 136.468C499.809 137.772 502.461 138.424 505.505 138.424C508.375 138.424 510.723 137.859 512.549 136.729C514.462 135.512 515.94 133.99 516.984 132.165H536.941C535.724 136.337 533.637 140.119 530.68 143.51C527.723 146.813 524.114 149.465 519.853 151.464C515.592 153.377 510.897 154.333 505.766 154.333Z" fill="#FAFAFA"/>
<path d="M436.858 152.768V58.8776H456.424V152.768H436.858Z" fill="#FAFAFA"/>
<path d="M400.051 152.768V87.0448H419.617V152.768H400.051ZM409.834 79.4814C406.355 79.4814 403.529 78.4816 401.355 76.4821C399.181 74.4826 398.094 71.9614 398.094 68.9187C398.094 65.789 399.181 63.2244 401.355 61.2249C403.529 59.2253 406.355 58.2256 409.834 58.2256C413.399 58.2256 416.269 59.2253 418.443 61.2249C420.704 63.2244 421.834 65.789 421.834 68.9187C421.834 71.9614 420.704 74.4826 418.443 76.4821C416.269 78.4816 413.399 79.4814 409.834 79.4814Z" fill="#FAFAFA"/>
<path d="M282.731 152.768V61.4856H306.211L332.82 116.386L359.169 61.4856H382.518V152.768H362.952V94.4778L340.516 139.989H324.863L302.297 94.4778V152.768H282.731Z" fill="#FAFAFA"/>
</svg>
