<svg width="788" height="298" viewBox="0 0 788 298" fill="none" xmlns="http://www.w3.org/2000/svg">
<path d="M669.144 208.122V131.284H683.26L685.064 138.288C686.196 136.802 687.505 135.423 688.991 134.149C690.476 132.876 692.245 131.885 694.297 131.177C696.42 130.399 698.896 130.01 701.726 130.01C706.679 130.01 711.03 131.248 714.78 133.725C718.601 136.201 721.643 139.562 723.907 143.807C726.172 147.981 727.304 152.757 727.304 158.135C727.304 163.512 726.136 168.323 723.801 172.568C721.537 176.743 718.495 180.033 714.674 182.438C710.853 184.844 706.573 186.047 701.832 186.047C698.012 186.047 694.722 185.375 691.962 184.03C689.203 182.686 686.903 180.811 685.064 178.405V208.122H669.144ZM697.799 172.144C700.346 172.144 702.611 171.578 704.592 170.446C706.644 169.243 708.236 167.58 709.368 165.458C710.5 163.335 711.066 160.894 711.066 158.135C711.066 155.375 710.5 152.934 709.368 150.812C708.236 148.689 706.644 147.026 704.592 145.823C702.611 144.55 700.346 143.913 697.799 143.913C695.181 143.913 692.847 144.55 690.795 145.823C688.814 147.026 687.257 148.689 686.125 150.812C684.993 152.934 684.427 155.34 684.427 158.028C684.427 160.788 684.993 163.229 686.125 165.351C687.257 167.474 688.814 169.137 690.795 170.34C692.847 171.542 695.181 172.144 697.799 172.144Z" fill="white"/>
<path d="M598.771 208.122V131.284H612.886L614.69 138.288C615.822 136.802 617.131 135.423 618.617 134.149C620.103 132.876 621.872 131.885 623.924 131.177C626.046 130.399 628.523 130.01 631.353 130.01C636.305 130.01 640.657 131.248 644.407 133.725C648.227 136.201 651.27 139.562 653.534 143.807C655.798 147.981 656.93 152.757 656.93 158.135C656.93 163.512 655.763 168.323 653.428 172.568C651.164 176.743 648.121 180.033 644.301 182.438C640.48 184.844 636.199 186.047 631.459 186.047C627.638 186.047 624.348 185.375 621.589 184.03C618.829 182.686 616.53 180.811 614.69 178.405V208.122H598.771ZM627.426 172.144C629.973 172.144 632.237 171.578 634.218 170.446C636.27 169.243 637.862 167.58 638.994 165.458C640.126 163.335 640.692 160.894 640.692 158.135C640.692 155.375 640.126 152.934 638.994 150.812C637.862 148.689 636.27 147.026 634.218 145.823C632.237 144.55 629.973 143.913 627.426 143.913C624.808 143.913 622.473 144.55 620.421 145.823C618.44 147.026 616.884 148.689 615.751 150.812C614.619 152.934 614.053 155.34 614.053 158.028C614.053 160.788 614.619 163.229 615.751 165.351C616.884 167.474 618.44 169.137 620.421 170.34C622.473 171.542 624.808 172.144 627.426 172.144Z" fill="white"/>
<path d="M517.403 184.773L544.466 110.482H562.72L589.784 184.773H572.909L553.487 128.418L534.065 184.773H517.403ZM529.183 168.535L533.428 156.224H572.378L576.517 168.535H529.183Z" fill="white"/>
<path d="M483.515 186.047C477.996 186.047 473.149 184.915 468.975 182.651C464.8 180.316 461.51 177.097 459.105 172.993C456.77 168.818 455.602 164.042 455.602 158.665C455.602 153.146 456.77 148.229 459.105 143.913C461.44 139.597 464.694 136.201 468.869 133.725C473.043 131.248 477.89 130.01 483.409 130.01C488.786 130.01 493.491 131.177 497.524 133.512C501.557 135.847 504.705 139.031 506.97 143.064C509.304 147.026 510.472 151.625 510.472 156.861C510.472 157.569 510.436 158.382 510.366 159.302C510.366 160.151 510.295 161.035 510.153 161.955H466.958V152.722H494.234C494.092 149.75 492.996 147.38 490.944 145.611C488.963 143.772 486.486 142.852 483.515 142.852C481.251 142.852 479.199 143.382 477.359 144.444C475.52 145.505 474.034 147.097 472.902 149.22C471.84 151.342 471.31 154.031 471.31 157.286V160.469C471.31 162.946 471.77 165.139 472.689 167.05C473.68 168.96 475.06 170.446 476.828 171.507C478.668 172.568 480.826 173.099 483.302 173.099C485.637 173.099 487.548 172.639 489.033 171.719C490.59 170.729 491.793 169.491 492.642 168.005H508.88C507.889 171.401 506.191 174.479 503.786 177.238C501.38 179.927 498.444 182.085 494.977 183.712C491.51 185.269 487.689 186.047 483.515 186.047Z" fill="white"/>
<path d="M427.449 184.773V108.359H443.368V184.773H427.449Z" fill="white"/>
<path d="M397.501 184.773V131.284H413.421V184.773H397.501ZM405.461 125.128C402.631 125.128 400.331 124.314 398.562 122.687C396.793 121.06 395.909 119.008 395.909 116.531C395.909 113.984 396.793 111.897 398.562 110.27C400.331 108.642 402.631 107.829 405.461 107.829C408.362 107.829 410.697 108.642 412.465 110.27C414.305 111.897 415.225 113.984 415.225 116.531C415.225 119.008 414.305 121.06 412.465 122.687C410.697 124.314 408.362 125.128 405.461 125.128Z" fill="white"/>
<path d="M302.046 184.773V110.482H321.149L342.8 155.163L364.238 110.482H383.236V184.773H367.316V137.333L349.062 174.372H336.326L317.965 137.333V184.773H302.046Z" fill="white"/>
<path d="M122.203 128.297C117.829 120.742 112.552 114.797 105.79 112.455L77.7071 183.671C75.7731 188.575 75.8403 194.037 77.894 198.854C79.9476 203.671 83.8194 207.449 88.6577 209.357C93.496 211.265 98.9044 211.146 103.693 209.028C108.482 206.909 112.259 202.963 114.193 198.059L132.558 151.488C129.712 144.356 126.551 135.804 122.203 128.297Z" fill="white"/>
<path d="M141.638 75.0064C136.799 73.0985 131.391 73.2169 126.602 75.3357C121.814 77.4546 118.037 81.4002 116.103 86.3046L107.79 107.384C116.298 110.414 122.363 117.703 126.917 125.567C131.739 133.893 135.196 143.473 138.044 150.536L164.999 212.591C165.876 214.609 167.078 216.444 168.54 218.034C170.471 220.148 172.895 221.862 175.729 222.979C177.093 223.517 178.481 223.889 179.873 224.105C183.512 224.679 187.27 224.217 190.702 222.726C193.07 221.697 195.213 220.212 197.008 218.355C198.566 216.742 199.835 214.877 200.763 212.84C200.945 212.452 201.116 212.056 201.276 211.651L204.149 204.365L178.971 146.401L178.985 146.395L152.51 85.4448C150.446 80.6924 146.578 76.9547 141.758 75.0539C141.738 75.046 141.718 75.0382 141.698 75.0304C141.678 75.0224 141.658 75.0143 141.638 75.0064Z" fill="white"/>
<path d="M232.436 116.951C228.123 107.022 216.578 102.469 206.649 106.782C201.759 108.906 198.173 112.784 196.308 117.36C196.234 117.533 196.163 117.707 196.093 117.883L187.573 139.489C196.318 142.419 202.525 149.828 207.166 157.833C212 166.17 215.466 175.761 218.316 182.827L218.312 182.829L225.262 198.829C229.574 208.758 241.12 213.311 251.048 208.998C260.977 204.685 265.53 193.14 261.217 183.211L232.436 116.951Z" fill="white"/>
<path d="M202.453 160.565C197.974 152.839 192.552 146.795 185.571 144.565L184.877 146.325L206.975 197.199L212.547 183.069C209.772 176.081 206.668 167.834 202.453 160.565Z" fill="white"/>
</svg>
