<svg width="942" height="322" viewBox="0 0 942 322" fill="none" xmlns="http://www.w3.org/2000/svg">
<path d="M146.084 68.5408C156.704 68.5409 165.798 74.8365 169.931 83.9304H169.995L206.753 168.004L233.018 228.927L227.867 238.34C227.612 238.912 227.294 239.484 226.976 239.993L226.722 240.502C222.08 247.942 213.875 252.84 204.527 252.84C193.462 252.839 183.986 245.971 180.171 236.241L147.546 162.597C137.434 135.061 125.351 118.844 110.597 113.63L121.217 86.6013C124.652 76.1082 134.446 68.5408 146.084 68.5408ZM253.559 110.704C264.434 110.704 273.719 117.318 277.662 126.73L316.2 215.318C317.853 218.752 318.807 222.632 318.807 226.702C318.807 241.138 307.106 252.839 292.671 252.84C281.732 252.84 272.319 246.098 268.44 236.495L250.888 196.303C241.985 170.102 231.492 155.284 217.501 148.352L230.092 125.331C234.353 116.682 243.257 110.704 253.559 110.704ZM107.863 120.434C123.443 126.349 133.428 144.473 143.667 172.455L118.928 235.287C118.801 235.668 118.61 236.113 118.42 236.495L118.101 237.195C113.967 246.225 104.874 252.458 94.317 252.458C79.8809 252.458 68.1793 240.756 68.1793 226.32C68.1793 222.632 68.9425 219.133 70.278 216.017L107.863 120.434ZM213.939 154.775C226.785 159.926 237.342 177.606 246.881 203.552L237.596 220.596L211.268 159.736L213.939 154.775Z" fill="url(#paint0_linear_1055_36121)"/>
<path d="M802.293 250.199V155.682H819.656L821.876 164.298C823.268 162.47 824.878 160.773 826.706 159.207C828.534 157.64 830.709 156.422 833.233 155.551C835.844 154.594 838.89 154.115 842.372 154.115C848.464 154.115 853.817 155.638 858.429 158.684C863.129 161.731 866.871 165.865 869.656 171.087C872.441 176.221 873.834 182.096 873.834 188.711C873.834 195.325 872.398 201.243 869.526 206.465C866.741 211.6 862.998 215.647 858.299 218.606C853.599 221.565 848.333 223.045 842.502 223.045C837.803 223.045 833.756 222.218 830.361 220.564C826.967 218.911 824.138 216.604 821.876 213.645V250.199H802.293ZM837.541 205.943C840.675 205.943 843.46 205.247 845.897 203.854C848.421 202.375 850.379 200.329 851.771 197.718C853.164 195.107 853.86 192.105 853.86 188.711C853.86 185.316 853.164 182.314 851.771 179.703C850.379 177.092 848.421 175.047 845.897 173.567C843.46 172 840.675 171.217 837.541 171.217C834.321 171.217 831.449 172 828.925 173.567C826.488 175.047 824.574 177.092 823.181 179.703C821.789 182.314 821.092 185.273 821.092 188.58C821.092 191.974 821.789 194.977 823.181 197.588C824.574 200.199 826.488 202.244 828.925 203.724C831.449 205.203 834.321 205.943 837.541 205.943Z" fill="#54D2FF"/>
<path d="M715.729 250.199V155.682H733.091L735.311 164.298C736.703 162.47 738.313 160.773 740.141 159.207C741.969 157.64 744.145 156.422 746.669 155.551C749.28 154.594 752.326 154.115 755.807 154.115C761.899 154.115 767.252 155.638 771.864 158.684C776.564 161.731 780.307 165.865 783.092 171.087C785.877 176.221 787.269 182.096 787.269 188.711C787.269 195.325 785.833 201.243 782.961 206.465C780.176 211.6 776.434 215.647 771.734 218.606C767.034 221.565 761.769 223.045 755.937 223.045C751.238 223.045 747.191 222.218 743.796 220.564C740.402 218.911 737.574 216.604 735.311 213.645V250.199H715.729ZM750.977 205.943C754.11 205.943 756.895 205.247 759.332 203.854C761.856 202.375 763.814 200.329 765.206 197.718C766.599 195.107 767.295 192.105 767.295 188.711C767.295 185.316 766.599 182.314 765.206 179.703C763.814 177.092 761.856 175.047 759.332 173.567C756.895 172 754.11 171.217 750.977 171.217C747.756 171.217 744.884 172 742.36 173.567C739.924 175.047 738.009 177.092 736.616 179.703C735.224 182.314 734.528 185.273 734.528 188.58C734.528 191.974 735.224 194.977 736.616 197.588C738.009 200.199 739.924 202.244 742.36 203.724C744.884 205.203 747.756 205.943 750.977 205.943Z" fill="#54D2FF"/>
<path d="M615.64 221.478L648.93 130.094H671.384L704.674 221.478H683.917L660.026 152.157L636.136 221.478H615.64ZM630.131 201.504L635.353 186.361H683.264L688.355 201.504H630.131Z" fill="#54D2FF"/>
<path d="M573.955 223.045C567.167 223.045 561.205 221.652 556.07 218.867C550.935 215.995 546.888 212.035 543.929 206.987C541.057 201.852 539.621 195.978 539.621 189.363C539.621 182.575 541.057 176.526 543.929 171.217C546.801 165.908 550.804 161.731 555.939 158.684C561.074 155.638 567.036 154.115 573.825 154.115C580.439 154.115 586.227 155.551 591.187 158.423C596.148 161.295 600.021 165.212 602.806 170.173C605.678 175.047 607.114 180.704 607.114 187.144C607.114 188.014 607.071 189.015 606.984 190.147C606.984 191.191 606.897 192.279 606.723 193.41H553.59V182.053H587.14C586.966 178.397 585.617 175.482 583.093 173.306C580.657 171.043 577.61 169.912 573.955 169.912C571.17 169.912 568.646 170.564 566.383 171.87C564.12 173.175 562.293 175.134 560.9 177.745C559.595 180.356 558.942 183.663 558.942 187.666V191.583C558.942 194.629 559.508 197.327 560.639 199.677C561.858 202.027 563.555 203.854 565.731 205.16C567.993 206.465 570.648 207.118 573.694 207.118C576.566 207.118 578.916 206.552 580.744 205.421C582.658 204.202 584.138 202.679 585.182 200.852H605.156C603.938 205.029 601.849 208.815 598.89 212.209C595.931 215.517 592.319 218.171 588.054 220.173C583.79 222.088 579.09 223.045 573.955 223.045Z" fill="#03559D"/>
<path d="M504.99 221.478V127.483H524.572V221.478H504.99Z" fill="#03559D"/>
<path d="M468.152 221.478V155.682H487.734V221.478H468.152ZM477.943 148.11C474.462 148.11 471.633 147.109 469.457 145.107C467.281 143.106 466.193 140.582 466.193 137.536C466.193 134.402 467.281 131.835 469.457 129.833C471.633 127.832 474.462 126.831 477.943 126.831C481.511 126.831 484.383 127.832 486.559 129.833C488.822 131.835 489.953 134.402 489.953 137.536C489.953 140.582 488.822 143.106 486.559 145.107C484.383 147.109 481.511 148.11 477.943 148.11Z" fill="#03559D"/>
<path d="M350.735 221.478V130.094H374.233L400.865 185.055L427.236 130.094H450.604V221.478H431.022V163.123L408.568 208.685H392.902L370.317 163.123V221.478H350.735Z" fill="#03559D"/>
<defs>
<linearGradient id="paint0_linear_1055_36121" x1="330.613" y1="187.199" x2="63.973" y2="185.959" gradientUnits="userSpaceOnUse">
<stop stop-color="#4DC3F6"/>
<stop offset="0.309769" stop-color="#389DDD"/>
<stop offset="0.590274" stop-color="#0B5BA6"/>
<stop offset="1" stop-color="#17232E"/>
</linearGradient>
</defs>
</svg>
