<svg width="788" height="298" viewBox="0 0 788 298" fill="none" xmlns="http://www.w3.org/2000/svg">
<path d="M669.145 208.12V131.283H683.26L685.064 138.287C686.196 136.802 687.505 135.422 688.991 134.148C690.477 132.875 692.246 131.884 694.298 131.177C696.42 130.398 698.896 130.009 701.727 130.009C706.679 130.009 711.031 131.247 714.78 133.724C718.601 136.2 721.643 139.561 723.908 143.806C726.172 147.98 727.304 152.756 727.304 158.134C727.304 163.511 726.136 168.322 723.801 172.567C721.537 176.742 718.495 180.032 714.674 182.437C710.854 184.843 706.573 186.046 701.833 186.046C698.012 186.046 694.722 185.373 691.963 184.029C689.203 182.685 686.904 180.81 685.064 178.404V208.12H669.145ZM697.8 172.143C700.347 172.143 702.611 171.577 704.592 170.445C706.644 169.242 708.236 167.579 709.368 165.456C710.5 163.334 711.066 160.893 711.066 158.134C711.066 155.374 710.5 152.933 709.368 150.811C708.236 148.688 706.644 147.025 704.592 145.823C702.611 144.549 700.347 143.912 697.8 143.912C695.182 143.912 692.847 144.549 690.795 145.823C688.814 147.025 687.258 148.688 686.126 150.811C684.994 152.933 684.428 155.339 684.428 158.027C684.428 160.787 684.994 163.228 686.126 165.35C687.258 167.473 688.814 169.136 690.795 170.338C692.847 171.541 695.182 172.143 697.8 172.143Z" fill="#54D2FF"/>
<path d="M598.772 208.12V131.283H612.887L614.692 138.287C615.824 136.802 617.133 135.422 618.618 134.148C620.104 132.875 621.873 131.884 623.925 131.177C626.047 130.398 628.524 130.009 631.354 130.009C636.307 130.009 640.658 131.247 644.408 133.724C648.228 136.2 651.271 139.561 653.535 143.806C655.799 147.98 656.931 152.756 656.931 158.134C656.931 163.511 655.764 168.322 653.429 172.567C651.165 176.742 648.122 180.032 644.302 182.437C640.481 184.843 636.2 186.046 631.46 186.046C627.639 186.046 624.349 185.373 621.59 184.029C618.831 182.685 616.531 180.81 614.692 178.404V208.12H598.772ZM627.427 172.143C629.974 172.143 632.238 171.577 634.219 170.445C636.271 169.242 637.863 167.579 638.995 165.456C640.127 163.334 640.693 160.893 640.693 158.134C640.693 155.374 640.127 152.933 638.995 150.811C637.863 148.688 636.271 147.025 634.219 145.823C632.238 144.549 629.974 143.912 627.427 143.912C624.809 143.912 622.474 144.549 620.423 145.823C618.441 147.025 616.885 148.688 615.753 150.811C614.621 152.933 614.055 155.339 614.055 158.027C614.055 160.787 614.621 163.228 615.753 165.35C616.885 167.473 618.441 169.136 620.423 170.338C622.474 171.541 624.809 172.143 627.427 172.143Z" fill="#54D2FF"/>
<path d="M517.405 184.772L544.468 110.482H562.722L589.785 184.772H572.911L553.489 128.418L534.067 184.772H517.405ZM529.185 168.534L533.43 156.223H572.38L576.519 168.534H529.185Z" fill="#54D2FF"/>
<path d="M483.517 186.046C477.999 186.046 473.152 184.913 468.978 182.649C464.803 180.315 461.513 177.095 459.108 172.992C456.773 168.817 455.605 164.041 455.605 158.664C455.605 153.145 456.773 148.228 459.108 143.912C461.443 139.596 464.697 136.2 468.872 133.724C473.046 131.247 477.893 130.009 483.411 130.009C488.789 130.009 493.494 131.177 497.527 133.512C501.559 135.846 504.708 139.03 506.972 143.063C509.307 147.025 510.474 151.624 510.474 156.86C510.474 157.567 510.439 158.381 510.368 159.301C510.368 160.15 510.297 161.034 510.156 161.954H466.961V152.721H494.237C494.095 149.749 492.998 147.379 490.946 145.61C488.965 143.771 486.489 142.851 483.517 142.851C481.253 142.851 479.202 143.382 477.362 144.443C475.522 145.504 474.037 147.096 472.905 149.219C471.843 151.341 471.313 154.03 471.313 157.284V160.468C471.313 162.945 471.772 165.138 472.692 167.048C473.683 168.959 475.062 170.445 476.831 171.506C478.671 172.567 480.829 173.098 483.305 173.098C485.64 173.098 487.55 172.638 489.036 171.718C490.593 170.728 491.796 169.489 492.645 168.004H508.882C507.892 171.4 506.194 174.477 503.788 177.237C501.383 179.925 498.446 182.083 494.979 183.711C491.513 185.267 487.692 186.046 483.517 186.046Z" fill="#03559D"/>
<path d="M427.452 184.772V108.359H443.372V184.772H427.452Z" fill="#03559D"/>
<path d="M397.505 184.772V131.283H413.424V184.772H397.505ZM405.464 125.128C402.634 125.128 400.335 124.314 398.566 122.687C396.797 121.059 395.913 119.008 395.913 116.531C395.913 113.984 396.797 111.897 398.566 110.27C400.335 108.642 402.634 107.829 405.464 107.829C408.365 107.829 410.7 108.642 412.469 110.27C414.309 111.897 415.228 113.984 415.228 116.531C415.228 119.008 414.309 121.059 412.469 122.687C410.7 124.314 408.365 125.128 405.464 125.128Z" fill="#03559D"/>
<path d="M302.051 184.772V110.482H321.154L342.804 155.162L364.242 110.482H383.239V184.772H367.32V137.332L349.066 174.371H336.33L317.97 137.332V184.772H302.051Z" fill="#03559D"/>
<path d="M122.203 128.296C117.828 120.742 112.552 114.797 105.79 112.455L77.7072 183.67C75.7732 188.574 75.8404 194.036 77.894 198.853C79.9476 203.67 83.8194 207.448 88.6576 209.356C93.4959 211.264 98.9042 211.145 103.693 209.026C108.482 206.907 112.258 202.962 114.192 198.058L132.557 151.487C129.712 144.355 126.551 135.804 122.203 128.296Z" fill="url(#paint0_linear_850_39006)"/>
<path d="M141.637 75.0065C136.799 73.0986 131.391 73.2171 126.602 75.3359C121.813 77.4546 118.036 81.4002 116.102 86.3046L107.79 107.384C116.297 110.414 122.363 117.703 126.917 125.567C131.738 133.893 135.196 143.472 138.044 150.535L164.998 212.589C165.875 214.608 167.077 216.443 168.539 218.032C170.47 220.146 172.894 221.86 175.728 222.978C177.092 223.515 178.48 223.887 179.872 224.103C183.511 224.677 187.269 224.215 190.7 222.725C193.069 221.696 195.212 220.211 197.006 218.354C198.565 216.741 199.834 214.875 200.762 212.839C200.944 212.451 201.115 212.054 201.275 211.65L204.148 204.364L178.97 146.4L178.984 146.394L152.51 85.4448C150.445 80.6925 146.578 76.9548 141.758 75.054C141.738 75.0461 141.718 75.0384 141.697 75.0305C141.677 75.0225 141.657 75.0144 141.637 75.0065Z" fill="url(#paint1_linear_850_39006)"/>
<path d="M232.434 116.95C228.121 107.022 216.576 102.469 206.647 106.782C201.758 108.906 198.172 112.784 196.307 117.359C196.233 117.532 196.161 117.707 196.092 117.882L187.572 139.488C196.316 142.418 202.523 149.828 207.164 157.832C211.998 166.169 215.465 175.76 218.315 182.826L218.31 182.828L225.26 198.828C229.573 208.757 241.118 213.309 251.047 208.997C260.975 204.684 265.528 193.139 261.215 183.21L232.434 116.95Z" fill="url(#paint2_linear_850_39006)"/>
<path d="M202.452 160.565C197.972 152.838 192.551 146.794 185.57 144.565L184.876 146.325L206.974 197.197L212.545 183.068C209.771 176.08 206.667 167.833 202.452 160.565Z" fill="url(#paint3_linear_850_39006)"/>
<defs>
<linearGradient id="paint0_linear_850_39006" x1="169.573" y1="73.6565" x2="169.573" y2="224.342" gradientUnits="userSpaceOnUse">
<stop offset="0.259615" stop-color="#03559D"/>
<stop offset="0.495192" stop-color="#03559D"/>
<stop offset="1" stop-color="#1A1A1A"/>
</linearGradient>
<linearGradient id="paint1_linear_850_39006" x1="169.573" y1="73.6565" x2="169.573" y2="224.342" gradientUnits="userSpaceOnUse">
<stop offset="0.403846" stop-color="#03559D"/>
<stop offset="1" stop-color="#1B68BB"/>
</linearGradient>
<linearGradient id="paint2_linear_850_39006" x1="169.573" y1="73.6565" x2="169.573" y2="224.342" gradientUnits="userSpaceOnUse">
<stop offset="0.495192" stop-color="#389DDD"/>
<stop offset="1" stop-color="#54D2FF"/>
</linearGradient>
<linearGradient id="paint3_linear_850_39006" x1="169.573" y1="73.6565" x2="169.573" y2="224.342" gradientUnits="userSpaceOnUse">
<stop stop-color="#389DDD"/>
<stop offset="0.850962" stop-color="#1B68BB"/>
</linearGradient>
</defs>
</svg>
